<?xml version="1.0" standalone="no"?>
<!DOCTYPE svg PUBLIC "-//W3C//DTD SVG 20010904//EN"
 "http://www.w3.org/TR/2001/REC-SVG-20010904/DTD/svg10.dtd">
<svg version="1.0" xmlns="http://www.w3.org/2000/svg"
 width="457.000000pt" height="457.000000pt" viewBox="0 0 457.000000 457.000000"
 preserveAspectRatio="xMidYMid meet">
<metadata>
Created by potrace 1.11, written by Peter Selinger 2001-2013
</metadata>
<g transform="translate(0.000000,457.000000) scale(0.100000,-0.100000)"
fill="#000000" stroke="none">
<path d="M1985 4544 c-439 -60 -831 -234 -1179 -524 -121 -100 -406 -423 -406
-458 0 -6 -3 -12 -8 -14 -20 -8 -143 -229 -200 -358 -26 -61 -72 -183 -76
-206 -2 -10 -9 -31 -15 -47 -6 -15 -18 -58 -27 -95 -23 -100 -30 -133 -40
-199 -3 -26 -8 -57 -11 -68 -2 -11 -6 -55 -10 -98 l-6 -78 29 7 c46 11 234
103 239 117 2 6 7 30 10 52 11 83 27 162 40 208 8 26 12 47 10 47 -2 0 3 16
11 35 8 19 14 36 13 37 -2 9 49 142 88 225 18 40 33 77 33 83 0 5 5 10 12 10
6 0 9 3 5 6 -3 4 7 25 22 48 16 22 30 46 31 51 5 17 89 142 105 155 8 7 15 17
15 22 0 29 329 368 357 368 5 0 15 9 23 20 8 11 20 20 26 20 7 0 14 4 16 8 2
5 41 32 88 62 47 29 102 63 122 76 20 13 48 26 62 30 14 3 26 9 26 13 0 3 12
11 28 18 15 7 50 22 77 34 108 46 256 91 381 114 71 13 139 24 150 24 10 0 51
3 89 7 299 28 673 -26 910 -131 81 -35 111 -48 120 -50 16 -5 176 -95 223
-126 24 -16 47 -29 52 -29 4 0 10 -3 12 -7 2 -5 30 -28 63 -53 76 -56 121 -96
216 -192 136 -137 306 -364 295 -394 -5 -13 -189 -106 -416 -212 -85 -39 -501
-233 -608 -283 -46 -21 -89 -39 -96 -39 -16 0 -18 45 -19 568 -1 354 -2 372
-19 366 -10 -3 -57 -23 -103 -45 l-85 -40 -1 -192 c-1 -460 -5 -766 -9 -771
-3 -2 -34 -18 -70 -34 -36 -16 -108 -50 -160 -75 -52 -24 -221 -103 -375 -175
-154 -72 -334 -156 -399 -187 -65 -31 -140 -65 -165 -77 -96 -44 -170 -78
-276 -128 -60 -28 -132 -62 -160 -75 -168 -78 -518 -240 -685 -317 -107 -50
-198 -95 -202 -101 -9 -15 26 -106 93 -233 52 -102 142 -255 168 -286 6 -7 39
-49 73 -93 284 -366 670 -631 1128 -774 86 -26 180 -51 220 -57 8 -1 26 -5 39
-8 13 -3 49 -8 80 -11 31 -3 72 -8 91 -11 41 -6 393 -6 465 0 70 6 265 42 355
67 41 11 80 21 85 22 6 2 15 5 20 9 15 9 159 52 168 50 4 -1 7 1 7 6 0 4 15
13 33 20 63 26 83 37 207 104 136 75 162 90 170 98 3 3 30 23 60 45 30 22 57
42 60 45 3 3 28 23 55 45 117 92 298 283 381 401 43 61 109 161 120 179 6 11
26 47 44 80 18 33 39 69 46 80 8 11 14 27 14 36 0 10 5 19 10 21 6 2 12 14 15
27 2 12 8 28 13 35 10 13 55 134 72 191 6 22 14 47 17 55 3 8 7 20 8 25 2 6
13 51 25 100 12 50 23 104 26 120 2 17 5 44 8 60 16 114 21 175 21 285 0 117
-1 125 -19 122 -35 -6 -226 -101 -230 -114 -3 -7 -7 -45 -11 -84 -3 -39 -7
-80 -9 -90 -2 -11 -7 -41 -10 -69 -32 -255 -146 -562 -292 -788 -122 -188
-318 -401 -489 -530 -117 -88 -177 -123 -338 -202 -645 -311 -1385 -259 -1997
140 -36 23 -75 51 -87 61 -12 11 -45 38 -75 61 -62 50 -214 204 -280 283 -84
103 -250 360 -231 360 3 0 0 6 -6 14 -14 17 2 30 84 67 28 12 102 47 165 77
159 75 218 102 227 103 5 1 20 10 35 20 14 10 29 19 32 19 3 0 29 11 58 25 28
14 58 25 65 25 7 0 13 5 13 10 0 6 8 10 18 10 10 0 22 4 27 9 6 4 57 30 115
56 58 26 132 61 164 76 33 16 62 27 65 24 8 -8 9 -52 11 -498 l3 -408 23 5
c12 3 43 15 68 26 26 11 47 18 49 17 1 -1 16 8 33 20 l31 22 -1 456 c-1 252 1
460 4 463 6 8 9 10 193 96 75 36 137 62 137 58 0 -4 4 -2 8 4 4 5 23 17 42 26
19 9 61 28 93 42 124 56 176 80 267 123 129 61 140 65 141 50 1 -6 3 -23 5
-37 1 -14 3 -213 4 -442 0 -252 5 -418 10 -418 11 0 133 54 170 75 l25 14 2
318 c2 369 5 473 14 473 8 0 42 -32 302 -283 260 -251 246 -239 271 -231 39
12 154 63 173 77 9 6 -25 45 -114 130 -194 187 -503 493 -503 500 0 9 120 68
120 59 0 -4 4 -1 9 6 4 7 14 15 22 16 15 3 133 58 334 155 172 84 356 171 360
171 1 0 51 23 109 50 58 28 109 50 113 50 3 0 14 6 22 14 9 8 25 16 36 18 11
1 22 5 25 8 3 3 45 24 93 45 49 22 91 45 94 52 5 13 -38 113 -49 113 -5 0 -8
9 -8 20 0 11 -4 20 -10 20 -5 0 -10 5 -10 11 0 24 -167 265 -255 369 -45 52
-205 210 -254 250 -23 19 -55 45 -69 58 -65 57 -277 188 -406 252 -176 86
-406 166 -536 186 -19 3 -44 8 -55 11 -106 31 -534 42 -710 17z"/>
</g>
</svg>
